<svg width="876" height="31" viewBox="0 0 876 31" fill="none" xmlns="http://www.w3.org/2000/svg">
<path d="M0.778839 28.9248C1.55377 28.2576 1.95482 30.0411 1.18997 30.5723C1.19091 30.5726 1.19201 30.5739 1.1929 30.5742C1.1607 30.5943 0.875718 30.4597 0.652863 30.2744C0.560353 30.1707 0.380018 30.1143 0.306183 30.0273C0.227358 29.943 0.192803 29.8636 0.178253 29.8408C0.134081 29.7815 0.235507 29.6678 0.240753 29.6338C0.259225 29.5922 0.291788 29.5652 0.33548 29.5488C0.414263 29.5214 0.587752 29.507 0.67923 29.5498C0.894024 29.617 1.14667 29.7055 1.29446 29.4561C1.42215 29.2013 0.625318 29.0535 0.778839 28.9248ZM133.823 0.286133C135.639 -0.48634 137.737 0.35918 138.509 2.1748L143.938 14.9336C144.803 16.9663 143.855 19.3149 141.823 20.1797L129.065 25.6084C127.249 26.3809 125.151 25.5352 124.378 23.7197C123.606 21.9039 124.451 19.8048 126.267 19.0322L130.806 17.1006C130.793 17.096 130.779 17.0926 130.766 17.0879C130.612 17.0322 130.808 16.6734 130.798 16.6416C130.725 16.4282 130.247 16.1751 130.197 16.1367C129.921 15.926 129.744 16.7635 129.625 16.7793C128.388 16.9361 127.395 16.527 126.28 16.2373C126.098 16.1902 126.384 15.7641 126.291 15.7402C123.963 15.1726 121.647 14.9138 119.366 14.2119C119.422 13.9459 119.492 13.6547 119.535 13.4033C119.344 13.1783 119.033 14.0438 118.915 14.0576C117.157 14.2363 115.63 13.8038 114.068 13.4102C113.837 13.353 114.204 12.9734 114.032 12.9033C113.626 12.7409 113.175 12.6737 112.729 12.7217C112.543 12.7435 112.693 13.1619 112.507 13.1914C112.124 13.2522 111.672 13.1799 111.332 13.0391C111.165 12.9717 111.412 12.5739 111.306 12.541C110.003 12.1276 108.698 12.0463 107.388 11.6748C107.291 11.6433 107.497 11.2118 107.381 11.1836C105.545 10.737 103.962 10.7818 101.975 10.6025C100.46 10.4679 98.4636 10.3512 96.9175 9.83301C96.6001 9.72787 96.4112 10.0128 96.0904 9.63184C96.0201 9.5479 95.7742 8.74462 95.4556 9.2627C95.4097 9.33678 95.4656 9.69686 95.2925 9.72168C94.3702 9.84531 93.4195 9.76382 92.5201 9.57324C92.3685 9.54225 92.6152 9.11756 92.4478 9.07617C91.9867 8.96871 91.4733 8.87604 90.9868 9.04102C90.8141 9.1002 90.9268 9.81841 90.7066 9.45117C90.6855 9.41366 90.8186 9.03457 90.6958 8.99316C90.2502 8.84032 89.8306 9.18133 89.3658 8.84473C89.2914 8.78882 89.2327 7.95815 88.9302 8.53809C88.9124 8.57573 89.0169 8.92929 88.8081 8.95703C88.2393 9.02962 87.5239 9.06784 86.9634 8.91309C86.7604 8.85676 87.0027 8.46149 86.8667 8.41504C86.3566 8.2442 85.8225 8.24242 85.3277 8.07324C85.1886 8.02293 85.3102 7.63561 85.2896 7.6123C85.1244 7.48421 84.8712 8.19815 84.7788 8.37012C84.433 9.01859 83.9013 7.94022 83.8462 7.80566C83.5339 7.00943 83.5594 7.90942 83.4878 8.0127C83.1471 8.50692 83.187 7.76297 83.0484 7.66016C82.5802 7.32008 82.0421 7.59336 81.6148 7.59668C81.3536 7.59979 81.5439 8.01225 81.5132 8.04199C81.1551 8.33168 80.839 8.45573 80.4878 8.49902C80.3415 8.51825 80.382 8.19345 80.2242 8.1709C79.8703 8.12364 79.4819 8.30215 79.1099 8.21875C79.0025 8.19387 79.1376 7.77256 79.0103 7.73926C78.3891 7.58154 77.905 8.03985 77.2261 7.69824C77.1566 7.66376 76.8477 6.60844 76.5523 6.71582C75.9418 6.94217 76.945 7.36001 76.1538 7.91504C75.1726 8.6054 73.2451 8.35166 72.1333 8.39453C71.8356 8.4046 71.9838 8.07315 71.7827 8.0957C70.8601 8.20321 69.9518 8.53207 69.0708 8.69141C68.6358 8.76982 68.192 8.80975 67.73 8.7627C67.4069 8.72995 67.5221 7.80036 67.2759 7.56934C67.0285 7.33902 66.6306 7.54119 66.4458 7.72168C66.2634 7.90235 66.4452 8.45079 66.2661 8.56348C65.7629 8.88313 65.1651 8.73891 64.6558 9.0166C64.5492 9.07497 64.672 9.41131 64.6529 9.50098C64.5315 10.0726 64.1417 9.41421 64.063 9.34375C63.6216 8.9454 63.2906 9.29292 62.9566 9.12695C62.7386 9.01925 62.8247 8.7632 62.7329 8.67383C62.2483 8.21701 62.478 9.24563 62.482 9.41309C62.5017 10.4241 61.7273 9.10694 61.6949 9.06836C61.2446 8.5102 61.1496 9.34857 61.0767 9.51074C60.8381 10.0258 60.3894 9.84251 60.1538 9.93848C59.9202 10.0338 59.9678 9.6027 59.9488 9.56836C59.6285 9.07847 59.5792 9.90919 59.5757 9.9668C59.5256 10.7819 58.8102 10.0158 58.7339 10.0078C57.4302 9.94161 56.7064 10.9254 55.4097 10.8506C55.3563 10.8477 54.8279 10.1066 54.7701 10.7324C54.7617 10.836 54.9479 11.1234 54.8033 11.2207C54.2144 11.6104 53.4865 11.836 52.8072 11.9785C52.663 12.008 52.6557 11.5241 52.5572 11.5498C51.8311 11.7335 51.1256 12.128 50.4507 12.3984C50.3068 12.4558 50.2227 12.1771 50.1988 12.1719C49.9224 12.1383 50.153 12.5653 49.8941 12.5439C49.6952 12.5253 49.0068 11.3502 48.8872 11.3174C48.377 11.185 48.3209 11.5398 48.2613 12.1914C48.2449 12.371 48.6907 13.1974 48.2212 12.875C48.2034 12.8577 48.1263 12.4943 48.0816 12.4902C47.7467 12.4665 47.6163 12.7195 47.273 12.7559C46.8389 12.8029 46.0589 12.9377 45.6978 13.1025C44.9372 13.4462 44.6651 14.0588 43.73 13.8223C43.6982 13.8094 43.3744 13.0309 43.1675 13.3174C42.9599 13.6061 42.5955 14.0913 42.231 14.125C42.229 14.9245 41.9209 15.151 41.3706 15.0186C40.8205 14.8861 40.2881 14.517 39.8247 14.9014C39.7931 14.9309 39.9718 15.3273 39.9585 15.3408C39.1078 15.8618 38.1683 16.122 37.1363 16.1572C37.0928 16.1584 36.9887 15.7818 36.8999 15.7695C36.7362 15.7497 36.0965 16.1067 36.0826 16.2178C36.073 16.2068 35.751 15.5424 35.8111 15.9893C35.7122 16.2545 36.0735 16.2135 36.0826 16.2178C36.0617 16.389 35.8571 17.5229 35.3267 17.1523C35.0523 16.9613 34.9813 16.5449 34.5533 16.6201C33.8927 16.7344 33.2717 17.6428 32.5952 18.0127C32.207 18.226 31.4215 18.3144 31.0357 18.4844C30.2437 18.8335 29.6634 19.3744 28.8804 19.668C28.7776 19.7068 28.6824 19.3006 28.647 19.2988C28.2608 19.3047 28.0959 19.7013 27.732 19.7471C27.5947 19.7645 27.6071 19.3272 27.4126 19.3721C26.8695 19.4994 26.5229 20.391 25.8638 20.2002C25.575 20.1162 25.3675 19.4221 25.0962 19.4502C24.4983 19.513 24.8776 19.9147 24.8951 20.4004C24.9245 21.44 24.537 21.4743 23.9165 20.6328C23.9402 20.5695 24.1496 20.5793 24.1197 20.4814C23.8401 19.5864 23.5088 19.6706 23.9165 20.6328C23.7224 20.782 23.3953 20.8129 23.7954 21.332C23.829 21.3757 24.0608 20.9237 24.0855 21.5166C24.0952 21.7468 24.0194 22.5901 23.6206 22.3789C23.2215 22.167 22.758 21.2094 22.4683 21.71C22.4524 21.7393 22.6122 22.0378 22.6099 22.1113C22.589 22.6671 22.0327 22.2236 21.8765 22.1992C21.3434 22.1196 21.2109 22.4541 20.9312 22.7412C20.7784 22.8984 21.3585 23.4771 20.8833 23.2432C20.8084 23.2067 20.033 22.4489 20.0005 22.4561C19.4471 22.6697 20.2415 24.4224 19.5464 24.126C19.3841 24.0549 19.1903 23.206 18.9468 23.668C18.8833 23.7921 19.004 24.0184 18.8775 24.1143C18.5159 24.3881 17.8283 24.3631 18.0161 25.3428C17.5851 25.4209 16.9812 25.1865 16.5835 25.2715C16.0748 25.3819 15.8308 25.8644 15.3482 26.0273C15.2347 26.0644 15.1318 25.6113 15.0308 25.6543C14.2218 26.0207 13.5816 26.6524 12.8023 27.0869C12.3942 26.3463 11.969 25.5939 11.5708 24.8535C11.3669 25.3347 11.9922 25.8972 12.0943 26.4268C12.1962 26.9525 11.6486 26.4526 11.6314 26.9395C11.6189 27.112 11.683 27.7571 11.5503 27.9014C11.3289 28.1404 10.9617 28.1244 10.6743 28.1357C10.3864 28.1484 10.3736 28.4452 10.0767 28.4033C10.0301 28.3945 9.88164 28.1111 9.82669 28.0674C9.39008 27.7278 9.42211 28.6087 9.42044 28.6758C9.37936 29.6855 8.98561 28.639 8.73782 28.4736C7.60278 27.6865 8.01206 29.0744 7.45169 29.4932C7.28296 29.6167 6.7775 28.7379 6.47708 28.7266C6.00333 28.7143 5.70788 29.1231 5.13626 29.0586C5.0178 29.0394 4.14317 28.3265 4.38919 29.2393C4.41432 29.3227 5.11234 30.7072 4.5845 30.4756C4.51528 30.4466 3.76869 29.75 3.69095 29.7275C3.3377 29.6526 3.255 30.0692 3.03079 30.0215C2.80647 29.9726 2.34826 29.0391 2.36966 28.9863C2.66098 28.3228 3.82655 30.4257 3.01224 28.3691C3.60988 29.007 3.74293 28.4165 4.18021 28.2988C4.21146 28.2937 4.29029 28.7339 4.47415 28.6289C4.89387 28.3813 5.46774 28.1268 5.81497 27.6719C5.95996 27.4643 5.59331 27.3974 5.67532 27.1406C5.75959 26.8824 6.06322 27.1895 6.07181 26.6455C6.07253 26.5022 6.09457 25.6768 6.54446 25.9688C6.59663 26.0023 6.74882 26.282 6.80228 26.3037C7.0291 26.3885 7.01047 26.094 7.22318 26.1699C7.27394 26.1874 7.35427 26.5126 7.44485 26.5195C7.91632 26.5476 8.11718 26.4199 8.56595 27.2393C8.81363 26.9825 8.60474 26.0209 8.76028 25.7461C8.94446 25.3973 9.30469 25.7304 9.51419 25.5996C9.72472 25.4672 9.49819 25.1893 9.6763 25.0771C10.1515 24.7779 10.7596 24.7893 11.2085 24.4424C11.3178 24.3596 11.2555 24.0105 11.4185 23.9082C11.5291 23.8402 12.0179 24.4078 12.0777 24.4023C13.3889 24.2679 14.079 23.1433 15.3072 22.9053C15.2602 21.4183 16.821 23.5583 17.2222 23.5791C18.2213 23.6329 16.9576 21.963 17.0767 21.3535C17.1817 20.7994 17.8893 21.0898 18.0367 20.9854C18.8485 20.4115 19.2531 19.8024 20.1704 19.626C20.1957 19.6286 20.2979 20.0386 20.4195 19.9834C20.6747 19.867 20.9617 19.5755 21.2007 19.4434C21.3513 19.3607 21.747 19.9125 21.772 19.9238C22.4592 20.1521 22.586 19.4965 22.4536 18.7607C22.3211 18.0247 22.7598 18.7584 22.7271 18.3018C22.7161 18.1587 22.5806 17.9556 22.5816 17.875C22.5951 17.2803 23.1799 17.7624 23.3374 17.7939C23.9895 17.9232 24.4424 17.2207 24.7818 17.0342C25.1157 16.8503 24.7192 16.6135 24.7105 16.5674C24.6556 15.9183 25.0441 16.6621 25.0806 16.6729C26.0757 16.8847 26.4541 16.0405 27.357 15.9805C27.4419 15.9779 27.9139 16.6579 27.8892 16.0195C27.887 15.9775 27.674 15.6883 27.7691 15.6035C28.0458 15.3559 28.4298 15.2408 28.7525 15.0635C29.2809 15.7452 29.8732 15.7918 29.3833 14.6826C29.8665 14.392 30.4964 13.6223 30.9839 13.4951C31.6039 13.3341 31.9558 14.0071 32.4322 13.6387C32.503 13.5803 32.2786 13.2512 32.2945 13.2246C32.7201 12.6986 32.8175 13.5359 33.229 14.1494C33.3544 14.337 33.4569 13.9459 33.5572 14.0127C33.89 14.2347 34.0141 14.6924 34.3316 14.5586C34.8618 14.3352 34.8254 13.6379 34.3345 12.6729C35.023 13.2688 35.0445 14.0455 35.6411 13.5078C35.6969 13.455 35.4358 13.0977 35.5367 13.0166C36.2805 12.4337 37.1617 12.0668 37.9009 11.4609C37.9931 11.3826 37.7634 11.0556 37.7857 11.0303C38.18 10.6003 38.2183 11.3774 38.6079 11.9824C38.7926 12.2677 39.4941 12.6049 39.6538 12.4746C39.8126 12.3441 39.5674 12.2054 39.5835 12.0127C39.6002 11.8201 39.7848 12.0998 39.7359 11.7793C39.6884 11.4574 38.9484 10.1551 39.4956 10.2432C40.0415 10.333 39.9864 10.995 40.6363 10.5381C40.9965 10.2859 41.2374 10.2569 41.9019 9.94629C42.5658 9.63394 43.9659 8.46641 44.9917 8.64355C45.2627 8.69004 45.3009 9.53276 45.4849 9.79785C45.7856 9.70202 45.3991 9.31972 45.3941 8.97461C45.3892 8.62717 45.7374 9.12563 45.7281 8.60645C45.7251 8.4637 45.6746 7.78999 46.0611 8.19727C46.0857 8.22727 46.11 8.57086 46.2759 8.56445C46.6203 8.54961 46.7563 8.34089 46.982 9.17773C47.174 8.71428 46.4679 7.75235 46.9722 7.77539C46.9944 7.7802 47.0401 8.20923 47.1753 8.18359C48.9054 7.85756 50.2955 6.7134 52.0493 6.25977C52.0839 6.24918 52.5287 6.32486 52.6704 6.44727C52.6941 6.46988 52.6939 6.88923 52.899 6.84277C53.1048 6.79553 53.6395 6.66066 53.8179 6.49512C53.9974 6.3288 53.7093 6.08439 53.8013 5.98242C54.0091 5.75425 53.9211 6.33112 54.1411 6.35449C54.4372 6.38591 54.8759 6.19509 55.1021 6.02344C55.2531 5.90859 55.0767 5.62002 55.0894 5.53125C55.1839 4.91544 55.747 5.5767 55.8355 5.61719C56.3797 5.86202 56.5201 5.40922 56.9429 5.41406C57.0494 5.41689 57.0283 5.72581 57.1324 5.66504C57.5118 5.4412 57.5825 4.08969 58.1939 4.62402C58.4513 4.85161 58.4349 6.28685 58.9038 5.63867C58.9745 5.53967 58.7974 5.33389 58.8658 5.17188C58.9342 5.00946 59.2539 4.51796 59.4097 4.68359C59.5654 4.85167 59.8616 6.5777 59.98 5.80078C60.1015 5.02039 59.8427 4.86289 60.3023 4.25684C60.3106 4.23318 60.0942 3.89984 60.2876 3.78223C60.4839 3.66302 61.2418 3.5305 61.4068 3.47559C61.8217 3.33905 61.9592 4.49944 62.0269 4.56641C62.5536 5.05944 62.4657 4.05782 62.688 3.70996C62.7856 3.56035 62.9324 3.68683 63.0386 3.54785C63.0719 3.50245 62.9421 3.14082 62.9566 3.13477C63.4424 3.05039 63.7322 5.09025 64.0161 4.64355C64.0493 4.58484 63.8148 3.99401 63.899 3.7168C63.9216 3.64007 64.1656 2.62756 64.3296 2.80371C64.9748 3.50805 64.922 4.17353 65.6587 3.82715C65.7194 3.79788 65.6027 3.39199 65.6333 3.37695C66.5404 2.90742 67.4915 2.65425 68.4361 2.50391C70.0584 2.24614 71.7305 2.28157 73.3824 2.00098C73.847 2.99748 74.3872 2.26843 75.0113 2.48828C75.0908 2.52173 75.2601 3.36518 75.4966 2.72852C75.511 2.68725 75.3365 2.36073 75.5757 2.30371C77.1293 1.93495 78.7835 1.83664 80.3374 2.01172C80.5697 2.03771 80.3685 2.46917 80.4497 2.48926C81.1349 2.63903 81.6352 1.77576 82.3482 2.06738C82.4055 2.09007 82.5499 2.94368 82.8013 2.36035C82.8175 2.3231 82.7935 1.9739 82.8726 1.94434C83.2482 1.8003 83.2883 2.56786 83.6802 2.4043C83.7695 2.36608 83.6283 1.95255 83.812 1.91504C84.6424 1.75537 85.5182 1.7763 86.3423 1.91113C86.5015 1.93841 86.2674 2.39668 86.4331 2.4082C87.1509 2.45573 87.6984 2.68596 88.5113 2.29883C88.6178 2.24519 89.1651 1.44263 89.3931 1.9834C89.4199 2.05016 89.3529 2.39896 89.4654 2.45312C90.0185 2.7142 90.6658 2.65538 91.23 2.86426C91.3631 2.91427 91.2011 3.29281 91.2876 3.3457C91.6701 3.5822 91.4013 3.09769 91.7583 2.90332C92.3127 2.60158 93.0194 2.61376 93.6021 2.61621C93.8801 4.46655 95.3101 3.82986 96.2017 3.6123C96.3468 3.57461 96.2273 3.13961 96.3697 3.12695C97.7897 3.0051 99.1745 3.1626 100.543 3.43848C100.672 3.46532 100.473 3.91009 100.579 3.93066C101.581 4.1306 102.483 4.06207 103.525 4.21582C104.401 4.34662 105.336 4.67651 106.247 4.84863C107.451 5.07486 108.616 4.81014 109.831 5.41699C109.898 5.45438 110.27 6.38753 110.619 5.83789C110.661 5.77244 110.657 5.45044 110.833 5.38965C111.01 5.3293 111.476 5.38955 111.644 5.49414C111.808 5.59807 111.579 5.95954 111.686 6.00293C112.191 6.19858 112.806 6.13117 113.288 6.22461C113.639 6.29548 113.7 6.31251 114.082 6.33203C114.283 6.34418 114.748 6.51685 115.018 6.48047C115.137 6.46384 115.12 6.06158 115.154 6.03906C115.648 5.72771 115.087 6.35171 115.475 6.50098C116.377 6.84686 117.485 7.06447 118.545 6.91113C118.812 6.87185 118.858 6.11916 119.125 6.65918C119.14 6.69573 118.984 7.03509 119.103 7.08398C120.17 7.50542 121.483 7.43008 122.578 7.63574C125.794 8.2331 128.924 8.89307 132.126 9.33105C132.795 9.42962 133.293 9.66562 133.942 9.69238L131.934 4.97266C131.162 3.15691 132.007 1.05878 133.823 0.286133ZM7.17239 27.749C7.15063 27.356 6.6534 27.2467 6.67435 27.5605C6.6998 27.9519 7.18852 28.0651 7.17239 27.749ZM10.7583 27.3145C11.3551 27.4856 10.3163 25.6371 10.1831 26.293C10.1762 26.3323 10.7229 27.3028 10.7583 27.3145ZM14.3921 25.5918C14.3865 25.0239 13.7284 24.2692 13.7115 25.0166C13.7074 25.244 14.3983 26.1568 14.3921 25.5918ZM28.7534 15.0625C28.69 14.4365 28.9772 14.3729 29.3872 14.7158C29.1779 14.8379 28.9592 14.9385 28.7534 15.0625ZM44.3697 12.707C44.765 12.947 44.2318 11.5508 44.1099 12.0254C44.1034 12.0488 44.3471 12.6856 44.3697 12.707ZM43.8745 10.1846C43.8615 10.1688 43.6615 10.2585 43.6617 10.2793C43.7375 10.7758 44.1437 10.5927 43.8745 10.1846ZM57.4683 6.42188C57.4417 6.29867 57.2934 6.35523 57.2945 6.37793C57.3142 6.7582 57.5529 6.81761 57.4683 6.42188ZM66.8257 3.58398C66.8022 3.54786 66.2935 3.65434 66.2857 3.69824C66.1692 4.53595 67.1907 4.31857 66.8257 3.58398Z" fill="#2D96BC"/>
<path d="M366.613 28.9248C367.388 28.2576 367.789 30.0411 367.024 30.5723C367.025 30.5726 367.026 30.5739 367.027 30.5742C366.995 30.5943 366.71 30.4597 366.487 30.2744C366.394 30.1707 366.214 30.1143 366.14 30.0273C366.061 29.943 366.027 29.8636 366.012 29.8408C365.968 29.7815 366.069 29.6678 366.075 29.6338C366.093 29.5922 366.126 29.5652 366.169 29.5488C366.248 29.5214 366.422 29.507 366.513 29.5498C366.728 29.617 366.981 29.7055 367.128 29.4561C367.256 29.2013 366.459 29.0535 366.613 28.9248ZM499.657 0.286133C501.472 -0.48634 503.571 0.35918 504.343 2.1748L509.772 14.9336C510.637 16.9663 509.689 19.3149 507.657 20.1797L494.899 25.6084C493.083 26.3809 490.985 25.5352 490.212 23.7197C489.44 21.9039 490.285 19.8048 492.101 19.0322L496.64 17.1006C496.627 17.096 496.613 17.0926 496.6 17.0879C496.446 17.0322 496.642 16.6734 496.632 16.6416C496.559 16.4282 496.081 16.1751 496.031 16.1367C495.755 15.926 495.578 16.7635 495.458 16.7793C494.222 16.9361 493.229 16.527 492.114 16.2373C491.932 16.1902 492.218 15.7641 492.125 15.7402C489.797 15.1726 487.481 14.9138 485.2 14.2119C485.256 13.9459 485.326 13.6547 485.369 13.4033C485.178 13.1783 484.867 14.0438 484.749 14.0576C482.991 14.2363 481.464 13.8038 479.902 13.4102C479.671 13.353 480.038 12.9734 479.866 12.9033C479.46 12.7409 479.009 12.6737 478.563 12.7217C478.377 12.7435 478.527 13.1619 478.341 13.1914C477.958 13.2522 477.506 13.1799 477.166 13.0391C476.999 12.9717 477.246 12.5739 477.14 12.541C475.837 12.1276 474.532 12.0463 473.222 11.6748C473.125 11.6433 473.331 11.2118 473.215 11.1836C471.379 10.737 469.796 10.7818 467.809 10.6025C466.294 10.4679 464.298 10.3512 462.751 9.83301C462.434 9.72787 462.245 10.0128 461.924 9.63184C461.854 9.5479 461.608 8.74462 461.29 9.2627C461.244 9.33678 461.3 9.69686 461.126 9.72168C460.204 9.84531 459.253 9.76382 458.354 9.57324C458.202 9.54225 458.449 9.11756 458.282 9.07617C457.821 8.96871 457.307 8.87604 456.821 9.04102C456.648 9.1002 456.761 9.81841 456.541 9.45117C456.519 9.41366 456.653 9.03457 456.53 8.99316C456.084 8.84032 455.665 9.18133 455.2 8.84473C455.125 8.78882 455.067 7.95815 454.764 8.53809C454.746 8.57573 454.851 8.92929 454.642 8.95703C454.073 9.02962 453.358 9.06784 452.797 8.91309C452.594 8.85676 452.837 8.46149 452.701 8.41504C452.191 8.2442 451.656 8.24242 451.162 8.07324C451.023 8.02293 451.144 7.63561 451.124 7.6123C450.958 7.48421 450.705 8.19815 450.613 8.37012C450.267 9.01859 449.735 7.94022 449.68 7.80566C449.368 7.00943 449.393 7.90942 449.322 8.0127C448.981 8.50692 449.021 7.76297 448.882 7.66016C448.414 7.32008 447.876 7.59336 447.449 7.59668C447.188 7.59979 447.378 8.01225 447.347 8.04199C446.989 8.33168 446.673 8.45573 446.322 8.49902C446.175 8.51825 446.216 8.19345 446.058 8.1709C445.704 8.12364 445.316 8.30215 444.944 8.21875C444.836 8.19387 444.972 7.77256 444.844 7.73926C444.223 7.58154 443.739 8.03985 443.06 7.69824C442.991 7.66376 442.682 6.60844 442.386 6.71582C441.776 6.94217 442.779 7.36001 441.988 7.91504C441.007 8.6054 439.079 8.35166 437.967 8.39453C437.67 8.4046 437.818 8.07315 437.617 8.0957C436.694 8.20321 435.786 8.53207 434.905 8.69141C434.47 8.76982 434.026 8.80975 433.564 8.7627C433.241 8.72995 433.356 7.80036 433.11 7.56934C432.862 7.33902 432.465 7.54119 432.28 7.72168C432.097 7.90235 432.279 8.45079 432.1 8.56348C431.597 8.88313 430.999 8.73891 430.49 9.0166C430.383 9.07497 430.506 9.41131 430.487 9.50098C430.365 10.0726 429.976 9.41421 429.897 9.34375C429.456 8.9454 429.125 9.29292 428.791 9.12695C428.573 9.01925 428.659 8.7632 428.567 8.67383C428.082 8.21701 428.312 9.24563 428.316 9.41309C428.336 10.4241 427.561 9.10694 427.529 9.06836C427.079 8.5102 426.984 9.34857 426.911 9.51074C426.672 10.0258 426.223 9.84251 425.988 9.93848C425.754 10.0338 425.802 9.6027 425.783 9.56836C425.462 9.07847 425.413 9.90919 425.41 9.9668C425.36 10.7819 424.644 10.0158 424.568 10.0078C423.264 9.94161 422.54 10.9254 421.244 10.8506C421.19 10.8477 420.662 10.1066 420.604 10.7324C420.596 10.836 420.782 11.1234 420.637 11.2207C420.048 11.6104 419.32 11.836 418.641 11.9785C418.497 12.008 418.49 11.5241 418.391 11.5498C417.665 11.7335 416.96 12.128 416.285 12.3984C416.141 12.4558 416.057 12.1771 416.033 12.1719C415.756 12.1383 415.987 12.5653 415.728 12.5439C415.529 12.5253 414.841 11.3502 414.721 11.3174C414.211 11.185 414.155 11.5398 414.095 12.1914C414.079 12.371 414.525 13.1974 414.055 12.875C414.037 12.8577 413.96 12.4943 413.916 12.4902C413.581 12.4665 413.45 12.7195 413.107 12.7559C412.673 12.8029 411.893 12.9377 411.532 13.1025C410.771 13.4462 410.499 14.0588 409.564 13.8223C409.532 13.8094 409.208 13.0309 409.001 13.3174C408.794 13.6061 408.429 14.0913 408.065 14.125C408.063 14.9245 407.755 15.151 407.205 15.0186C406.654 14.8861 406.122 14.517 405.659 14.9014C405.627 14.9309 405.806 15.3273 405.792 15.3408C404.942 15.8618 404.002 16.122 402.97 16.1572C402.927 16.1584 402.823 15.7818 402.734 15.7695C402.57 15.7497 401.93 16.1067 401.917 16.2178C401.907 16.2068 401.585 15.5424 401.645 15.9893C401.546 16.2545 401.907 16.2135 401.917 16.2178C401.896 16.389 401.691 17.5229 401.161 17.1523C400.886 16.9613 400.815 16.5449 400.387 16.6201C399.727 16.7344 399.106 17.6428 398.429 18.0127C398.041 18.226 397.255 18.3144 396.87 18.4844C396.078 18.8335 395.497 19.3744 394.714 19.668C394.612 19.7068 394.516 19.3006 394.481 19.2988C394.095 19.3047 393.93 19.7013 393.566 19.7471C393.429 19.7645 393.441 19.3272 393.247 19.3721C392.703 19.4994 392.357 20.391 391.698 20.2002C391.409 20.1162 391.201 19.4221 390.93 19.4502C390.332 19.513 390.712 19.9147 390.729 20.4004C390.758 21.44 390.371 21.4743 389.75 20.6328C389.774 20.5695 389.984 20.5793 389.954 20.4814C389.674 19.5864 389.343 19.6706 389.75 20.6328C389.556 20.782 389.229 20.8129 389.629 21.332C389.663 21.3757 389.895 20.9237 389.919 21.5166C389.929 21.7468 389.853 22.5901 389.455 22.3789C389.055 22.167 388.592 21.2094 388.302 21.71C388.286 21.7393 388.446 22.0378 388.444 22.1113C388.423 22.6671 387.867 22.2236 387.71 22.1992C387.177 22.1196 387.045 22.4541 386.765 22.7412C386.612 22.8984 387.192 23.4771 386.717 23.2432C386.642 23.2067 385.867 22.4489 385.834 22.4561C385.281 22.6697 386.075 24.4224 385.38 24.126C385.218 24.0549 385.024 23.206 384.781 23.668C384.717 23.7921 384.838 24.0184 384.711 24.1143C384.35 24.3881 383.662 24.3631 383.85 25.3428C383.419 25.4209 382.815 25.1865 382.417 25.2715C381.909 25.3819 381.665 25.8644 381.182 26.0273C381.069 26.0644 380.966 25.6113 380.865 25.6543C380.056 26.0207 379.416 26.6524 378.636 27.0869C378.228 26.3463 377.803 25.5939 377.405 24.8535C377.201 25.3347 377.826 25.8972 377.928 26.4268C378.03 26.9525 377.483 26.4526 377.465 26.9395C377.453 27.112 377.517 27.7571 377.384 27.9014C377.163 28.1404 376.796 28.1244 376.508 28.1357C376.22 28.1484 376.208 28.4452 375.911 28.4033C375.864 28.3945 375.716 28.1111 375.661 28.0674C375.224 27.7278 375.256 28.6087 375.254 28.6758C375.213 29.6855 374.82 28.639 374.572 28.4736C373.437 27.6865 373.846 29.0744 373.286 29.4932C373.117 29.6167 372.611 28.7379 372.311 28.7266C371.837 28.7143 371.542 29.1231 370.97 29.0586C370.852 29.0394 369.977 28.3265 370.223 29.2393C370.248 29.3227 370.946 30.7072 370.418 30.4756C370.349 30.4466 369.603 29.75 369.525 29.7275C369.172 29.6526 369.089 30.0692 368.865 30.0215C368.64 29.9726 368.182 29.0391 368.204 28.9863C368.495 28.3228 369.661 30.4257 368.846 28.3691C369.444 29.007 369.577 28.4165 370.014 28.2988C370.045 28.2937 370.124 28.7339 370.308 28.6289C370.728 28.3813 371.302 28.1268 371.649 27.6719C371.794 27.4643 371.427 27.3974 371.509 27.1406C371.594 26.8824 371.897 27.1895 371.906 26.6455C371.906 26.5022 371.929 25.6768 372.378 25.9688C372.431 26.0023 372.583 26.282 372.636 26.3037C372.863 26.3885 372.844 26.094 373.057 26.1699C373.108 26.1874 373.188 26.5126 373.279 26.5195C373.75 26.5476 373.951 26.4199 374.4 27.2393C374.648 26.9825 374.439 26.0209 374.594 25.7461C374.778 25.3973 375.139 25.7304 375.348 25.5996C375.559 25.4672 375.332 25.1893 375.51 25.0771C375.985 24.7779 376.594 24.7893 377.042 24.4424C377.152 24.3596 377.089 24.0105 377.252 23.9082C377.363 23.8402 377.852 24.4078 377.912 24.4023C379.223 24.2679 379.913 23.1433 381.141 22.9053C381.094 21.4183 382.655 23.5583 383.056 23.5791C384.055 23.6329 382.792 21.963 382.911 21.3535C383.016 20.7994 383.723 21.0898 383.871 20.9854C384.682 20.4115 385.087 19.8024 386.004 19.626C386.03 19.6286 386.132 20.0386 386.253 19.9834C386.509 19.867 386.796 19.5755 387.035 19.4434C387.185 19.3607 387.581 19.9125 387.606 19.9238C388.293 20.1521 388.42 19.4965 388.288 18.7607C388.155 18.0247 388.594 18.7584 388.561 18.3018C388.55 18.1587 388.415 17.9556 388.416 17.875C388.429 17.2803 389.014 17.7624 389.171 17.7939C389.823 17.9232 390.276 17.2207 390.616 17.0342C390.95 16.8503 390.553 16.6135 390.544 16.5674C390.49 15.9183 390.878 16.6621 390.915 16.6729C391.91 16.8847 392.288 16.0405 393.191 15.9805C393.276 15.9779 393.748 16.6579 393.723 16.0195C393.721 15.9775 393.508 15.6883 393.603 15.6035C393.88 15.3559 394.264 15.2408 394.586 15.0635C395.115 15.7452 395.707 15.7918 395.217 14.6826C395.7 14.392 396.33 13.6223 396.818 13.4951C397.438 13.3341 397.79 14.0071 398.266 13.6387C398.337 13.5803 398.113 13.2512 398.128 13.2246C398.554 12.6986 398.651 13.5359 399.063 14.1494C399.188 14.337 399.291 13.9459 399.391 14.0127C399.724 14.2347 399.848 14.6924 400.166 14.5586C400.696 14.3352 400.659 13.6379 400.168 12.6729C400.857 13.2688 400.878 14.0455 401.475 13.5078C401.531 13.455 401.27 13.0977 401.371 13.0166C402.114 12.4337 402.996 12.0668 403.735 11.4609C403.827 11.3826 403.597 11.0556 403.62 11.0303C404.014 10.6003 404.052 11.3774 404.442 11.9824C404.627 12.2677 405.328 12.6049 405.488 12.4746C405.647 12.3441 405.401 12.2054 405.417 12.0127C405.434 11.8201 405.619 12.0998 405.57 11.7793C405.522 11.4574 404.782 10.1551 405.33 10.2432C405.875 10.333 405.82 10.995 406.47 10.5381C406.83 10.2859 407.071 10.2569 407.736 9.94629C408.4 9.63394 409.8 8.46641 410.826 8.64355C411.097 8.69004 411.135 9.53276 411.319 9.79785C411.62 9.70202 411.233 9.31972 411.228 8.97461C411.223 8.62717 411.571 9.12563 411.562 8.60645C411.559 8.4637 411.509 7.78999 411.895 8.19727C411.92 8.22727 411.944 8.57086 412.11 8.56445C412.454 8.54961 412.59 8.34089 412.816 9.17773C413.008 8.71428 412.302 7.75235 412.806 7.77539C412.828 7.7802 412.874 8.20923 413.009 8.18359C414.739 7.85756 416.129 6.7134 417.883 6.25977C417.918 6.24918 418.363 6.32486 418.504 6.44727C418.528 6.46988 418.528 6.88923 418.733 6.84277C418.939 6.79553 419.473 6.66066 419.652 6.49512C419.831 6.3288 419.543 6.08439 419.635 5.98242C419.843 5.75425 419.755 6.33112 419.975 6.35449C420.271 6.38591 420.71 6.19509 420.936 6.02344C421.087 5.90859 420.911 5.62002 420.923 5.53125C421.018 4.91544 421.581 5.5767 421.669 5.61719C422.214 5.86202 422.354 5.40922 422.777 5.41406C422.883 5.41689 422.862 5.72581 422.966 5.66504C423.346 5.4412 423.416 4.08969 424.028 4.62402C424.285 4.85161 424.269 6.28685 424.738 5.63867C424.808 5.53967 424.631 5.33389 424.7 5.17188C424.768 5.00946 425.088 4.51796 425.244 4.68359C425.399 4.85167 425.696 6.5777 425.814 5.80078C425.935 5.02039 425.677 4.86289 426.136 4.25684C426.145 4.23318 425.928 3.89984 426.122 3.78223C426.318 3.66302 427.076 3.5305 427.241 3.47559C427.656 3.33905 427.793 4.49944 427.861 4.56641C428.388 5.05944 428.3 4.05782 428.522 3.70996C428.62 3.56035 428.766 3.68683 428.873 3.54785C428.906 3.50245 428.776 3.14082 428.791 3.13477C429.276 3.05039 429.566 5.09025 429.85 4.64355C429.883 4.58484 429.649 3.99401 429.733 3.7168C429.756 3.64007 430 2.62756 430.164 2.80371C430.809 3.50805 430.756 4.17353 431.493 3.82715C431.553 3.79788 431.437 3.39199 431.467 3.37695C432.374 2.90742 433.325 2.65425 434.27 2.50391C435.892 2.24614 437.564 2.28157 439.216 2.00098C439.681 2.99748 440.221 2.26843 440.845 2.48828C440.925 2.52173 441.094 3.36518 441.331 2.72852C441.345 2.68725 441.17 2.36073 441.41 2.30371C442.963 1.93495 444.617 1.83664 446.171 2.01172C446.404 2.03771 446.202 2.46917 446.284 2.48926C446.969 2.63903 447.469 1.77576 448.182 2.06738C448.239 2.09007 448.384 2.94368 448.635 2.36035C448.651 2.3231 448.627 1.9739 448.707 1.94434C449.082 1.8003 449.122 2.56786 449.514 2.4043C449.603 2.36608 449.462 1.95255 449.646 1.91504C450.476 1.75537 451.352 1.7763 452.176 1.91113C452.335 1.93841 452.101 2.39668 452.267 2.4082C452.985 2.45573 453.532 2.68596 454.345 2.29883C454.452 2.24519 454.999 1.44263 455.227 1.9834C455.254 2.05016 455.187 2.39896 455.299 2.45312C455.852 2.7142 456.5 2.65538 457.064 2.86426C457.197 2.91427 457.035 3.29281 457.122 3.3457C457.504 3.5822 457.235 3.09769 457.592 2.90332C458.147 2.60158 458.853 2.61376 459.436 2.61621C459.714 4.46655 461.144 3.82986 462.036 3.6123C462.181 3.57461 462.061 3.13961 462.204 3.12695C463.624 3.0051 465.008 3.1626 466.377 3.43848C466.506 3.46532 466.307 3.91009 466.413 3.93066C467.415 4.1306 468.317 4.06207 469.359 4.21582C470.235 4.34662 471.17 4.67651 472.081 4.84863C473.285 5.07486 474.45 4.81014 475.665 5.41699C475.732 5.45438 476.104 6.38753 476.453 5.83789C476.495 5.77244 476.491 5.45044 476.667 5.38965C476.844 5.3293 477.31 5.38955 477.478 5.49414C477.642 5.59807 477.413 5.95954 477.52 6.00293C478.025 6.19858 478.64 6.13117 479.122 6.22461C479.473 6.29548 479.534 6.31251 479.916 6.33203C480.117 6.34418 480.582 6.51685 480.852 6.48047C480.971 6.46384 480.954 6.06158 480.988 6.03906C481.482 5.72771 480.921 6.35171 481.309 6.50098C482.211 6.84686 483.319 7.06447 484.379 6.91113C484.646 6.87185 484.692 6.11916 484.958 6.65918C484.974 6.69573 484.818 7.03509 484.937 7.08398C486.004 7.50542 487.317 7.43008 488.412 7.63574C491.628 8.2331 494.758 8.89307 497.96 9.33105C498.629 9.42962 499.127 9.66562 499.776 9.69238L497.768 4.97266C496.996 3.15691 497.841 1.05878 499.657 0.286133ZM373.006 27.749C372.985 27.356 372.487 27.2467 372.508 27.5605C372.534 27.9519 373.022 28.0651 373.006 27.749ZM376.592 27.3145C377.189 27.4856 376.15 25.6371 376.017 26.293C376.01 26.3323 376.557 27.3028 376.592 27.3145ZM380.226 25.5918C380.22 25.0239 379.562 24.2692 379.545 25.0166C379.541 25.244 380.232 26.1568 380.226 25.5918ZM394.587 15.0625C394.524 14.4365 394.811 14.3729 395.221 14.7158C395.012 14.8379 394.793 14.9385 394.587 15.0625ZM410.204 12.707C410.599 12.947 410.066 11.5508 409.944 12.0254C409.937 12.0488 410.181 12.6856 410.204 12.707ZM409.708 10.1846C409.695 10.1688 409.495 10.2585 409.496 10.2793C409.571 10.7758 409.978 10.5927 409.708 10.1846ZM423.302 6.42188C423.276 6.29867 423.127 6.35523 423.128 6.37793C423.148 6.7582 423.387 6.81761 423.302 6.42188ZM432.66 3.58398C432.636 3.54786 432.127 3.65434 432.12 3.69824C432.003 4.53595 433.025 4.31857 432.66 3.58398Z" fill="#2D96BC"/>
<path d="M732.445 28.9248C733.22 28.2576 733.621 30.0411 732.856 30.5723C732.857 30.5726 732.858 30.5739 732.859 30.5742C732.827 30.5943 732.542 30.4597 732.319 30.2744C732.226 30.1707 732.046 30.1143 731.972 30.0273C731.893 29.943 731.859 29.8636 731.844 29.8408C731.8 29.7815 731.902 29.6678 731.907 29.6338C731.925 29.5922 731.958 29.5652 732.002 29.5488C732.08 29.5214 732.254 29.507 732.345 29.5498C732.56 29.617 732.813 29.7055 732.961 29.4561C733.088 29.2013 732.291 29.0535 732.445 28.9248ZM865.489 0.286133C867.305 -0.48634 869.403 0.35918 870.175 2.1748L875.604 14.9336C876.469 16.9663 875.521 19.3149 873.489 20.1797L860.731 25.6084C858.915 26.3809 856.817 25.5352 856.044 23.7197C855.272 21.9039 856.117 19.8048 857.933 19.0322L862.472 17.1006C862.459 17.096 862.445 17.0926 862.432 17.0879C862.278 17.0322 862.474 16.6734 862.464 16.6416C862.391 16.4282 861.913 16.1751 861.863 16.1367C861.587 15.926 861.41 16.7635 861.291 16.7793C860.054 16.9361 859.062 16.527 857.946 16.2373C857.764 16.1902 858.051 15.7641 857.957 15.7402C855.629 15.1726 853.313 14.9138 851.032 14.2119C851.088 13.9459 851.159 13.6547 851.201 13.4033C851.01 13.1783 850.7 14.0438 850.581 14.0576C848.823 14.2363 847.296 13.8038 845.734 13.4102C845.504 13.353 845.87 12.9734 845.698 12.9033C845.292 12.7409 844.842 12.6737 844.395 12.7217C844.209 12.7435 844.359 13.1619 844.173 13.1914C843.79 13.2522 843.338 13.1799 842.998 13.0391C842.831 12.9717 843.078 12.5739 842.972 12.541C841.669 12.1276 840.364 12.0463 839.054 11.6748C838.957 11.6433 839.163 11.2118 839.047 11.1836C837.211 10.737 835.628 10.7818 833.641 10.6025C832.126 10.4679 830.13 10.3512 828.584 9.83301C828.266 9.72787 828.077 10.0128 827.756 9.63184C827.686 9.5479 827.44 8.74462 827.122 9.2627C827.076 9.33678 827.132 9.69686 826.959 9.72168C826.036 9.84531 825.086 9.76382 824.186 9.57324C824.035 9.54225 824.281 9.11756 824.114 9.07617C823.653 8.96871 823.139 8.87604 822.653 9.04102C822.48 9.1002 822.593 9.81841 822.373 9.45117C822.352 9.41366 822.485 9.03457 822.362 8.99316C821.916 8.84032 821.497 9.18133 821.032 8.84473C820.957 8.78882 820.899 7.95815 820.596 8.53809C820.578 8.57573 820.683 8.92929 820.474 8.95703C819.905 9.02962 819.19 9.06784 818.629 8.91309C818.426 8.85676 818.669 8.46149 818.533 8.41504C818.023 8.2442 817.489 8.24242 816.994 8.07324C816.855 8.02293 816.976 7.63561 816.956 7.6123C816.79 7.48421 816.537 8.19815 816.445 8.37012C816.099 9.01859 815.567 7.94022 815.512 7.80566C815.2 7.00943 815.225 7.90942 815.154 8.0127C814.813 8.50692 814.853 7.76297 814.714 7.66016C814.246 7.32008 813.708 7.59336 813.281 7.59668C813.02 7.59979 813.21 8.01225 813.179 8.04199C812.821 8.33168 812.505 8.45573 812.154 8.49902C812.008 8.51825 812.048 8.19345 811.89 8.1709C811.536 8.12364 811.148 8.30215 810.776 8.21875C810.669 8.19387 810.804 7.77256 810.676 7.73926C810.055 7.58154 809.571 8.03985 808.892 7.69824C808.823 7.66376 808.514 6.60844 808.218 6.71582C807.608 6.94217 808.611 7.36001 807.82 7.91504C806.839 8.6054 804.911 8.35166 803.799 8.39453C803.502 8.4046 803.65 8.07315 803.449 8.0957C802.526 8.20321 801.618 8.53207 800.737 8.69141C800.302 8.76982 799.858 8.80975 799.396 8.7627C799.073 8.72995 799.188 7.80036 798.942 7.56934C798.695 7.33902 798.297 7.54119 798.112 7.72168C797.929 7.90235 798.111 8.45079 797.932 8.56348C797.429 8.88313 796.831 8.73891 796.322 9.0166C796.215 9.07497 796.338 9.41131 796.319 9.50098C796.198 10.0726 795.808 9.41421 795.729 9.34375C795.288 8.9454 794.957 9.29292 794.623 9.12695C794.405 9.01925 794.491 8.7632 794.399 8.67383C793.914 8.21701 794.144 9.24563 794.148 9.41309C794.168 10.4241 793.393 9.10694 793.361 9.06836C792.911 8.5102 792.816 9.34857 792.743 9.51074C792.504 10.0258 792.055 9.84251 791.82 9.93848C791.586 10.0338 791.634 9.6027 791.615 9.56836C791.295 9.07847 791.245 9.90919 791.242 9.9668C791.192 10.7819 790.476 10.0158 790.4 10.0078C789.096 9.94161 788.372 10.9254 787.076 10.8506C787.022 10.8477 786.494 10.1066 786.436 10.7324C786.428 10.836 786.614 11.1234 786.469 11.2207C785.88 11.6104 785.153 11.836 784.473 11.9785C784.329 12.008 784.322 11.5241 784.223 11.5498C783.497 11.7335 782.792 12.128 782.117 12.3984C781.973 12.4558 781.889 12.1771 781.865 12.1719C781.588 12.1383 781.819 12.5653 781.56 12.5439C781.361 12.5253 780.673 11.3502 780.553 11.3174C780.043 11.185 779.987 11.5398 779.927 12.1914C779.911 12.371 780.357 13.1974 779.887 12.875C779.869 12.8577 779.792 12.4943 779.748 12.4902C779.413 12.4665 779.282 12.7195 778.939 12.7559C778.505 12.8029 777.725 12.9377 777.364 13.1025C776.603 13.4462 776.331 14.0588 775.396 13.8223C775.364 13.8094 775.04 13.0309 774.834 13.3174C774.626 13.6061 774.262 14.0913 773.897 14.125C773.895 14.9245 773.587 15.151 773.037 15.0186C772.487 14.8861 771.954 14.517 771.491 14.9014C771.459 14.9309 771.638 15.3273 771.625 15.3408C770.774 15.8618 769.834 16.122 768.802 16.1572C768.759 16.1584 768.655 15.7818 768.566 15.7695C768.402 15.7497 767.763 16.1067 767.749 16.2178C767.739 16.2068 767.417 15.5424 767.477 15.9893C767.378 16.2545 767.74 16.2135 767.749 16.2178C767.728 16.389 767.523 17.5229 766.993 17.1523C766.718 16.9613 766.647 16.5449 766.219 16.6201C765.559 16.7344 764.938 17.6428 764.261 18.0127C763.873 18.226 763.088 18.3144 762.702 18.4844C761.91 18.8335 761.329 19.3744 760.546 19.668C760.444 19.7068 760.348 19.3006 760.313 19.2988C759.927 19.3047 759.762 19.7013 759.398 19.7471C759.261 19.7645 759.273 19.3272 759.079 19.3721C758.536 19.4994 758.189 20.391 757.53 20.2002C757.241 20.1162 757.034 19.4221 756.762 19.4502C756.164 19.513 756.544 19.9147 756.561 20.4004C756.591 21.44 756.203 21.4743 755.583 20.6328C755.606 20.5695 755.816 20.5793 755.786 20.4814C755.506 19.5864 755.175 19.6706 755.583 20.6328C755.388 20.782 755.061 20.8129 755.461 21.332C755.495 21.3757 755.727 20.9237 755.752 21.5166C755.761 21.7468 755.685 22.5901 755.287 22.3789C754.888 22.167 754.424 21.2094 754.134 21.71C754.118 21.7393 754.278 22.0378 754.276 22.1113C754.255 22.6671 753.699 22.2236 753.543 22.1992C753.009 22.1196 752.877 22.4541 752.597 22.7412C752.444 22.8984 753.025 23.4771 752.549 23.2432C752.474 23.2067 751.699 22.4489 751.667 22.4561C751.113 22.6697 751.908 24.4224 751.212 24.126C751.05 24.0549 750.856 23.206 750.613 23.668C750.549 23.7921 750.67 24.0184 750.544 24.1143C750.182 24.3881 749.494 24.3631 749.682 25.3428C749.251 25.4209 748.647 25.1865 748.25 25.2715C747.741 25.3819 747.497 25.8644 747.014 26.0273C746.901 26.0644 746.798 25.6113 746.697 25.6543C745.888 26.0207 745.248 26.6524 744.468 27.0869C744.06 26.3463 743.635 25.5939 743.237 24.8535C743.033 25.3347 743.658 25.8972 743.76 26.4268C743.862 26.9525 743.315 26.4526 743.297 26.9395C743.285 27.112 743.349 27.7571 743.216 27.9014C742.995 28.1404 742.628 28.1244 742.34 28.1357C742.052 28.1484 742.04 28.4452 741.743 28.4033C741.696 28.3945 741.548 28.1111 741.493 28.0674C741.056 27.7278 741.088 28.6087 741.086 28.6758C741.045 29.6855 740.652 28.639 740.404 28.4736C739.269 27.6865 739.678 29.0744 739.118 29.4932C738.949 29.6167 738.444 28.7379 738.143 28.7266C737.669 28.7143 737.374 29.1231 736.802 29.0586C736.684 29.0394 735.809 28.3265 736.055 29.2393C736.08 29.3227 736.778 30.7072 736.251 30.4756C736.181 30.4466 735.435 29.75 735.357 29.7275C735.004 29.6526 734.921 30.0692 734.697 30.0215C734.473 29.9726 734.014 29.0391 734.036 28.9863C734.327 28.3228 735.493 30.4257 734.678 28.3691C735.276 29.007 735.409 28.4165 735.846 28.2988C735.878 28.2937 735.956 28.7339 736.14 28.6289C736.56 28.3813 737.134 28.1268 737.481 27.6719C737.626 27.4643 737.259 27.3974 737.341 27.1406C737.426 26.8824 737.729 27.1895 737.738 26.6455C737.739 26.5022 737.761 25.6768 738.211 25.9688C738.263 26.0023 738.415 26.282 738.468 26.3037C738.695 26.3885 738.677 26.094 738.889 26.1699C738.94 26.1874 739.02 26.5126 739.111 26.5195C739.582 26.5476 739.783 26.4199 740.232 27.2393C740.48 26.9825 740.271 26.0209 740.426 25.7461C740.611 25.3973 740.971 25.7304 741.18 25.5996C741.391 25.4672 741.164 25.1893 741.342 25.0771C741.818 24.7779 742.426 24.7893 742.875 24.4424C742.984 24.3596 742.922 24.0105 743.085 23.9082C743.195 23.8402 743.684 24.4078 743.744 24.4023C745.055 24.2679 745.745 23.1433 746.973 22.9053C746.926 21.4183 748.487 23.5583 748.888 23.5791C749.887 23.6329 748.624 21.963 748.743 21.3535C748.848 20.7994 749.555 21.0898 749.703 20.9854C750.515 20.4115 750.919 19.8024 751.836 19.626C751.862 19.6286 751.964 20.0386 752.086 19.9834C752.341 19.867 752.628 19.5755 752.867 19.4434C753.017 19.3607 753.413 19.9125 753.438 19.9238C754.125 20.1521 754.252 19.4965 754.12 18.7607C753.987 18.0247 754.426 18.7584 754.393 18.3018C754.382 18.1587 754.247 17.9556 754.248 17.875C754.261 17.2803 754.846 17.7624 755.003 17.7939C755.656 17.9232 756.108 17.2207 756.448 17.0342C756.782 16.8503 756.385 16.6135 756.377 16.5674C756.322 15.9183 756.71 16.6621 756.747 16.6729C757.742 16.8847 758.12 16.0405 759.023 15.9805C759.108 15.9779 759.58 16.6579 759.555 16.0195C759.553 15.9775 759.34 15.6883 759.435 15.6035C759.712 15.3559 760.096 15.2408 760.419 15.0635C760.947 15.7452 761.539 15.7918 761.049 14.6826C761.533 14.392 762.162 13.6223 762.65 13.4951C763.27 13.3341 763.622 14.0071 764.098 13.6387C764.169 13.5803 763.945 13.2512 763.961 13.2246C764.386 12.6986 764.484 13.5359 764.895 14.1494C765.02 14.337 765.123 13.9459 765.223 14.0127C765.556 14.2347 765.68 14.6924 765.998 14.5586C766.528 14.3352 766.491 13.6379 766.001 12.6729C766.689 13.2688 766.711 14.0455 767.307 13.5078C767.363 13.455 767.102 13.0977 767.203 13.0166C767.947 12.4337 768.828 12.0668 769.567 11.4609C769.659 11.3826 769.429 11.0556 769.452 11.0303C769.846 10.6003 769.884 11.3774 770.274 11.9824C770.459 12.2677 771.16 12.6049 771.32 12.4746C771.479 12.3441 771.233 12.2054 771.25 12.0127C771.266 11.8201 771.451 12.0998 771.402 11.7793C771.354 11.4574 770.614 10.1551 771.162 10.2432C771.708 10.333 771.652 10.995 772.302 10.5381C772.663 10.2859 772.903 10.2569 773.568 9.94629C774.232 9.63394 775.632 8.46641 776.658 8.64355C776.929 8.69004 776.967 9.53276 777.151 9.79785C777.452 9.70202 777.065 9.31972 777.06 8.97461C777.055 8.62717 777.403 9.12563 777.394 8.60645C777.391 8.4637 777.341 7.78999 777.727 8.19727C777.752 8.22727 777.776 8.57086 777.942 8.56445C778.286 8.54961 778.422 8.34089 778.648 9.17773C778.84 8.71428 778.134 7.75235 778.638 7.77539C778.66 7.7802 778.706 8.20923 778.841 8.18359C780.571 7.85756 781.962 6.7134 783.715 6.25977C783.75 6.24918 784.195 6.32486 784.336 6.44727C784.36 6.46988 784.36 6.88923 784.565 6.84277C784.771 6.79553 785.306 6.66066 785.484 6.49512C785.663 6.3288 785.375 6.08439 785.467 5.98242C785.675 5.75425 785.587 6.33112 785.807 6.35449C786.103 6.38591 786.542 6.19509 786.768 6.02344C786.919 5.90859 786.743 5.62002 786.755 5.53125C786.85 4.91544 787.413 5.5767 787.502 5.61719C788.046 5.86202 788.186 5.40922 788.609 5.41406C788.715 5.41689 788.694 5.72581 788.798 5.66504C789.178 5.4412 789.249 4.08969 789.86 4.62402C790.117 4.85161 790.101 6.28685 790.57 5.63867C790.641 5.53967 790.463 5.33389 790.532 5.17188C790.6 5.00946 790.92 4.51796 791.076 4.68359C791.231 4.85167 791.528 6.5777 791.646 5.80078C791.768 5.02039 791.509 4.86289 791.968 4.25684C791.977 4.23318 791.76 3.89984 791.954 3.78223C792.15 3.66302 792.908 3.5305 793.073 3.47559C793.488 3.33905 793.625 4.49944 793.693 4.56641C794.22 5.05944 794.132 4.05782 794.354 3.70996C794.452 3.56035 794.598 3.68683 794.705 3.54785C794.738 3.50245 794.608 3.14082 794.623 3.13477C795.108 3.05039 795.398 5.09025 795.682 4.64355C795.715 4.58484 795.481 3.99401 795.565 3.7168C795.588 3.64007 795.832 2.62756 795.996 2.80371C796.641 3.50805 796.588 4.17353 797.325 3.82715C797.385 3.79788 797.269 3.39199 797.299 3.37695C798.206 2.90742 799.158 2.65425 800.102 2.50391C801.724 2.24614 803.397 2.28157 805.048 2.00098C805.513 2.99748 806.053 2.26843 806.677 2.48828C806.757 2.52173 806.926 3.36518 807.163 2.72852C807.177 2.68725 807.003 2.36073 807.242 2.30371C808.795 1.93495 810.45 1.83664 812.003 2.01172C812.236 2.03771 812.035 2.46917 812.116 2.48926C812.801 2.63903 813.301 1.77576 814.014 2.06738C814.072 2.09007 814.216 2.94368 814.467 2.36035C814.484 2.3231 814.46 1.9739 814.539 1.94434C814.914 1.8003 814.954 2.56786 815.346 2.4043C815.436 2.36608 815.294 1.95255 815.478 1.91504C816.308 1.75537 817.184 1.7763 818.008 1.91113C818.168 1.93841 817.933 2.39668 818.099 2.4082C818.817 2.45573 819.364 2.68596 820.177 2.29883C820.284 2.24519 820.831 1.44263 821.059 1.9834C821.086 2.05016 821.019 2.39896 821.131 2.45312C821.685 2.7142 822.332 2.65538 822.896 2.86426C823.029 2.91427 822.867 3.29281 822.954 3.3457C823.336 3.5822 823.067 3.09769 823.424 2.90332C823.979 2.60158 824.685 2.61376 825.268 2.61621C825.546 4.46655 826.976 3.82986 827.868 3.6123C828.013 3.57461 827.893 3.13961 828.036 3.12695C829.456 3.0051 830.841 3.1626 832.21 3.43848C832.338 3.46532 832.139 3.91009 832.245 3.93066C833.247 4.1306 834.149 4.06207 835.191 4.21582C836.067 4.34662 837.002 4.67651 837.913 4.84863C839.117 5.07486 840.282 4.81014 841.497 5.41699C841.564 5.45438 841.936 6.38753 842.285 5.83789C842.327 5.77244 842.323 5.45044 842.499 5.38965C842.676 5.3293 843.142 5.38955 843.31 5.49414C843.475 5.59807 843.245 5.95954 843.352 6.00293C843.857 6.19858 844.472 6.13117 844.954 6.22461C845.305 6.29548 845.366 6.31251 845.748 6.33203C845.949 6.34418 846.414 6.51685 846.684 6.48047C846.803 6.46384 846.786 6.06158 846.82 6.03906C847.314 5.72771 846.753 6.35171 847.141 6.50098C848.043 6.84686 849.151 7.06447 850.211 6.91113C850.478 6.87185 850.524 6.11916 850.791 6.65918C850.806 6.69573 850.65 7.03509 850.769 7.08398C851.836 7.50542 853.149 7.43008 854.244 7.63574C857.46 8.2331 860.59 8.89307 863.793 9.33105C864.461 9.42962 864.959 9.66562 865.608 9.69238L863.6 4.97266C862.828 3.15691 863.673 1.05878 865.489 0.286133ZM738.838 27.749C738.817 27.356 738.319 27.2467 738.34 27.5605C738.366 27.9519 738.855 28.0651 738.838 27.749ZM742.424 27.3145C743.021 27.4856 741.982 25.6371 741.849 26.293C741.842 26.3323 742.389 27.3028 742.424 27.3145ZM746.058 25.5918C746.053 25.0239 745.394 24.2692 745.378 25.0166C745.373 25.244 746.064 26.1568 746.058 25.5918ZM760.419 15.0625C760.356 14.4365 760.643 14.3729 761.053 14.7158C760.844 14.8379 760.625 14.9385 760.419 15.0625ZM776.036 12.707C776.431 12.947 775.898 11.5508 775.776 12.0254C775.769 12.0488 776.013 12.6856 776.036 12.707ZM775.541 10.1846C775.528 10.1688 775.328 10.2585 775.328 10.2793C775.404 10.7758 775.81 10.5927 775.541 10.1846ZM789.134 6.42188C789.108 6.29867 788.959 6.35523 788.961 6.37793C788.98 6.7582 789.219 6.81761 789.134 6.42188ZM798.492 3.58398C798.468 3.54786 797.96 3.65434 797.952 3.69824C797.835 4.53595 798.857 4.31857 798.492 3.58398Z" fill="#2D96BC"/>
</svg>
