<svg width="80" height="146" viewBox="0 0 80 146" fill="none" xmlns="http://www.w3.org/2000/svg">
<g opacity="0.52">
<path d="M34.1883 12.7762L36.6748 13.3047L33.2071 29.6189L30.7206 29.0904L34.1883 12.7762Z" fill="url(#paint0_linear_1_7673)"/>
<path d="M21.4674 36.534L38.6392 40.1839C39.9027 40.4525 41.1507 39.6464 41.4204 38.3778L42.7244 32.2429C42.993 30.9793 42.1869 29.7313 40.9183 29.4617L23.7515 25.8128C22.488 25.5442 21.24 26.3503 20.9703 27.6189L19.6663 33.7539C19.3977 35.0174 20.2038 36.2654 21.4674 36.534Z" fill="url(#paint1_linear_1_7673)"/>
<path d="M32.4775 11.2695C32.1032 13.0303 33.226 14.7593 34.9869 15.1336C36.7477 15.5079 38.4767 14.3851 38.851 12.6242C39.2252 10.8634 38.1024 9.13441 36.3416 8.76014C34.5808 8.38586 32.8518 9.50869 32.4775 11.2695Z" fill="url(#paint2_linear_1_7673)"/>
<path d="M33.7354 10.2604C33.6211 10.7982 33.9658 11.3223 34.4986 11.4356C35.0365 11.5499 35.5606 11.2052 35.6739 10.6724C35.7882 10.1345 35.4435 9.61041 34.9107 9.49716C34.3739 9.37775 33.8498 9.72247 33.7354 10.2604Z" fill="white"/>
<path d="M-19.1172 66.9592C-21.2237 76.8695 -14.8983 86.6098 -4.98794 88.7163L36.9623 97.6331C46.832 99.7309 56.6215 93.3736 58.7194 83.5039L60.7007 74.1822C64.4338 56.6196 53.1216 39.2004 35.5591 35.4673L21.574 32.4947C4.0114 28.7617 -13.4078 40.0738 -17.1408 57.6364L-19.1222 66.9581L-19.1172 66.9592Z" fill="url(#paint3_linear_1_7673)" fill-opacity="0.8"/>
<path d="M-5.60499 63.7561C-4.69181 64.4752 -3.60615 64.9818 -2.44918 65.2277L44.2659 75.1573C45.428 75.4043 46.6258 75.3831 47.7475 75.0965C50.5123 74.3901 52.4537 72.1933 52.6482 69.5563L52.6628 69.3631C53.3096 60.4313 46.8677 52.0877 37.3422 49.5433C33.3127 48.464 29.0576 47.4482 24.5867 46.5244C21.0862 45.8015 17.685 45.1847 14.3967 44.6607C4.61918 43.1022 -4.70989 48.0671 -7.7634 56.5192C-7.78649 56.5779 -7.80559 56.6428 -7.82868 56.7015C-8.72459 59.1948 -7.84457 61.9912 -5.60499 63.7561Z" fill="#001966"/>
<path d="M33.6031 70.9139C28.738 69.8798 25.6323 65.0974 26.6664 60.2323C27.7005 55.3671 32.4829 52.2614 37.348 53.2955C42.2132 54.3296 45.3189 59.112 44.2848 63.9772C43.2507 68.8423 38.4683 71.948 33.6031 70.9139Z" fill="url(#paint4_radial_1_7673)"/>
<path d="M34.1173 68.4773C30.6254 67.7351 28.3963 64.3026 29.1385 60.8106C29.8808 57.3187 33.3133 55.0896 36.8052 55.8318C40.2972 56.5741 42.5262 60.0066 41.784 63.4985C41.0418 66.9905 37.6093 69.2195 34.1173 68.4773Z" fill="#EEFDFF"/>
<path d="M34.3058 67.4406C31.3744 66.8175 29.5031 63.936 30.1262 61.0045C30.7493 58.0731 33.6308 56.2018 36.5623 56.8249C39.4937 57.448 41.365 60.3295 40.7419 63.261C40.1188 66.1924 37.2373 68.0637 34.3058 67.4406Z" fill="url(#paint5_linear_1_7673)"/>
<path d="M32.3557 60.0733C32.1249 61.1592 32.8201 62.2298 33.9061 62.4607C34.992 62.6915 36.0626 61.9962 36.2934 60.9103C36.5242 59.8244 35.829 58.7537 34.743 58.5229C33.652 58.291 32.5865 58.9874 32.3557 60.0733Z" fill="#EEFDFF"/>
<path d="M35.1906 67.1324C34.7562 67.0401 34.4789 66.6131 34.5713 66.1787C34.6636 65.7443 35.0906 65.467 35.525 65.5594C35.9594 65.6517 36.2367 66.0787 36.1443 66.5131C36.052 66.9475 35.625 67.2248 35.1906 67.1324Z" fill="#EEFDFF"/>
<path d="M37.5839 65.5725C37.5375 65.7907 37.6785 66.001 37.8916 66.0463C38.1098 66.0927 38.3201 65.9518 38.3654 65.7386C38.4117 65.5204 38.2708 65.3101 38.0577 65.2648C37.8446 65.2195 37.6292 65.3594 37.5839 65.5725Z" fill="#EEFDFF"/>
<path d="M9.83947 65.8631C4.97429 64.829 1.8686 60.0467 2.90273 55.1815C3.93685 50.3163 8.71919 47.2106 13.5844 48.2447C18.4496 49.2789 21.5552 54.0612 20.5211 58.9264C19.487 63.7916 14.7046 66.8972 9.83947 65.8631Z" fill="url(#paint6_radial_1_7673)"/>
<path d="M10.3517 63.4265C6.85977 62.6843 4.63069 59.2518 5.37292 55.7599C6.11516 52.2679 9.54764 50.0388 13.0396 50.7811C16.5315 51.5233 18.7606 54.9558 18.0184 58.4477C17.2761 61.9397 13.8437 64.1687 10.3517 63.4265Z" fill="#EEFDFF"/>
<path d="M10.591 62.4015C7.65956 61.7784 5.78828 58.8969 6.41138 55.9655C7.03447 53.034 9.916 51.1627 12.8474 51.7858C15.7789 52.4089 17.6502 55.2905 17.0271 58.2219C16.404 61.1533 13.5224 63.0246 10.591 62.4015Z" fill="url(#paint7_linear_1_7673)"/>
<path d="M8.56661 55.0186C8.33579 56.1045 9.03106 57.1752 10.117 57.406C11.2029 57.6368 12.2735 56.9415 12.5044 55.8556C12.7352 54.7697 12.0399 53.699 10.954 53.4682C9.86806 53.2374 8.79743 53.9327 8.56661 55.0186Z" fill="#EEFDFF"/>
<path d="M11.4758 62.0934C11.0414 62.0011 10.7641 61.5741 10.8564 61.1397C10.9488 60.7053 11.3758 60.428 11.8102 60.5203C12.2445 60.6127 12.5218 61.0396 12.4295 61.474C12.3372 61.9084 11.9102 62.1857 11.4758 62.0934Z" fill="#EEFDFF"/>
<path d="M13.8201 60.5215C13.7737 60.7397 13.9146 60.95 14.1277 60.9953C14.3459 61.0417 14.5562 60.9007 14.6015 60.6876C14.6479 60.4694 14.507 60.2591 14.2938 60.2138C14.0807 60.1685 13.8654 60.3084 13.8201 60.5215Z" fill="#EEFDFF"/>
<path d="M-4.33444 54.9003C-4.03208 55.2245 -0.483634 50.7068 7.09253 47.7507C9.75358 46.7094 12.2954 46.104 12.2264 45.7552C12.1584 45.4013 9.43192 45.453 7.14648 45.9749C-0.13834 47.6352 -4.69198 54.5114 -4.33444 54.9003Z" fill="#CEE6FF"/>
<path opacity="0.8" d="M51.0856 102.224C38.7248 102.938 36.1541 101.458 33.4081 104.146C33.0931 104.456 31.4797 106.033 31.2278 108.44C31.0216 110.359 31.7635 112.034 32.2822 112.812C35.4579 117.534 47.4768 115.135 54.8855 111.295C56.5012 110.455 60.8343 108.21 60.5456 105.9C60.4289 104.952 59.5778 104.315 58.9625 103.866C56.2483 101.889 52.9489 102.116 51.0856 102.224Z" fill="url(#paint8_linear_1_7673)"/>
<path d="M-14.5883 99.285C-14.6109 99.3915 -14.6325 99.493 -14.649 99.5956C-14.8216 100.582 -14.7497 101.367 -14.7082 101.72C-13.581 112.212 -12.758 117.797 -10.9482 122.557C-10.6345 123.377 -10.2952 124.175 -9.91195 124.968C-9.4149 126.023 -8.84756 127.071 -8.20443 128.163C-6.77356 130.588 -4.14741 132.106 -3.30597 132.614C-0.23138 134.493 2.75201 134.904 4.69627 135.339L5.03626 135.411C6.9993 135.807 9.88593 136.649 13.4548 136.177C14.43 136.055 17.4517 135.738 19.7404 134.103C26.0509 129.615 29.0107 125.397 36.4369 112.592C36.6103 112.3 36.9691 111.66 37.215 110.752C37.2863 110.492 37.3486 110.224 37.3895 109.957C37.6425 108.292 37.3157 106.536 36.4461 104.813C34.9535 101.855 32.1171 99.8037 28.8817 99.1055L13.2868 95.7217L-2.02496 92.4034C-5.33024 91.685 -8.83281 92.3937 -11.4772 94.5047C-12.7553 95.5271 -13.6896 96.7287 -14.2214 98.0582C-14.294 98.2497 -14.3665 98.4411 -14.4288 98.6347C-14.4792 98.8467 -14.5408 99.0617 -14.5883 99.285Z" fill="url(#paint9_linear_1_7673)" fill-opacity="0.8"/>
<path d="M13.4507 72.6517C13.358 73.5124 13.9202 74.3107 14.7503 74.5721L26.177 78.1783C27.0021 78.4385 27.9258 78.1098 28.342 77.3497C28.5302 77.0131 28.6901 76.6599 28.8279 76.2862C28.8658 76.1828 28.8631 76.0709 28.8154 75.9706C28.7678 75.8703 28.6822 75.7991 28.5778 75.7663L14.1589 71.2164C14.0545 71.1836 13.9455 71.1976 13.8502 71.2463C13.754 71.3 13.6878 71.3868 13.6601 71.4922C13.5618 71.8797 13.4961 72.2636 13.4507 72.6517Z" fill="#CEE6FF"/>
<path d="M13.4316 72.622C13.033 76.3188 15.2781 79.9039 18.9617 81.0635C22.5894 82.2111 26.4271 80.6243 28.247 77.4523C27.7984 78.1154 26.9372 78.3991 26.1578 78.1486L14.725 74.5463C13.901 74.281 13.3388 73.4827 13.4316 72.622Z" fill="url(#paint10_linear_1_7673)"/>
<path d="M73.7849 17.3376C73.7849 19.2525 72.2335 20.8038 70.3186 20.8038C68.4042 20.8038 66.8524 19.252 66.8524 17.3376C66.8524 15.4237 68.4042 13.8713 70.3186 13.8713C72.233 13.8713 73.7849 15.4237 73.7849 17.3376Z" fill="#50A8EB" stroke="url(#paint11_linear_1_7673)" stroke-width="1.21984" stroke-miterlimit="10" stroke-linejoin="round"/>
<path d="M62.4881 25.2985C63.6934 25.2985 64.6705 24.3214 64.6705 23.116C64.6705 21.9107 63.6934 20.9336 62.4881 20.9336C61.2828 20.9336 60.3057 21.9107 60.3057 23.116C60.3057 24.3214 61.2828 25.2985 62.4881 25.2985Z" fill="#50A8EB" stroke="url(#paint12_linear_1_7673)" stroke-width="1.21984" stroke-miterlimit="10" stroke-linejoin="round"/>
<path d="M57.9941 29.791C58.9158 29.791 59.663 29.0438 59.663 28.1221C59.663 27.2003 58.9158 26.4531 57.9941 26.4531C57.0724 26.4531 56.3252 27.2003 56.3252 28.1221C56.3252 29.0438 57.0724 29.791 57.9941 29.791Z" fill="#50A8EB" stroke="url(#paint13_linear_1_7673)" stroke-width="1.21984" stroke-miterlimit="10" stroke-linejoin="round"/>
</g>
<defs>
<linearGradient id="paint0_linear_1_7673" x1="32.7002" y1="33.7399" x2="25.3622" y2="30.8597" gradientUnits="userSpaceOnUse">
<stop stop-color="#1B36FF"/>
<stop offset="0.164" stop-color="#1750FD"/>
<stop offset="0.518" stop-color="#0D95F8"/>
<stop offset="1" stop-color="#00FCF1"/>
</linearGradient>
<linearGradient id="paint1_linear_1_7673" x1="43.4567" y1="43.9872" x2="37.3012" y2="15.8416" gradientUnits="userSpaceOnUse">
<stop stop-color="#1B36FF"/>
<stop offset="0.164" stop-color="#1750FD"/>
<stop offset="0.518" stop-color="#0D95F8"/>
<stop offset="1" stop-color="#00FCF1"/>
</linearGradient>
<linearGradient id="paint2_linear_1_7673" x1="38.7427" y1="17.584" x2="31.7055" y2="5.65638" gradientUnits="userSpaceOnUse">
<stop stop-color="#1B36FF"/>
<stop offset="0.164" stop-color="#1750FD"/>
<stop offset="0.518" stop-color="#0D95F8"/>
<stop offset="1" stop-color="#00FCF1"/>
</linearGradient>
<linearGradient id="paint3_linear_1_7673" x1="62.8386" y1="118.476" x2="7.11657" y2="-13.3913" gradientUnits="userSpaceOnUse">
<stop stop-color="#1B36FF"/>
<stop offset="0.164" stop-color="#1750FD"/>
<stop offset="0.518" stop-color="#0D95F8"/>
<stop offset="1" stop-color="#00FCF1"/>
</linearGradient>
<radialGradient id="paint4_radial_1_7673" cx="0" cy="0" r="1" gradientUnits="userSpaceOnUse" gradientTransform="translate(35.4765 62.1048) rotate(-168) scale(8.91178)">
<stop offset="0.1296" stop-color="#3280FC"/>
<stop offset="1"/>
</radialGradient>
<linearGradient id="paint5_linear_1_7673" x1="40.745" y1="63.2616" x2="30.1248" y2="61.0042" gradientUnits="userSpaceOnUse">
<stop stop-color="#030D14"/>
<stop offset="1" stop-color="#0B2F45"/>
</linearGradient>
<radialGradient id="paint6_radial_1_7673" cx="0" cy="0" r="1" gradientUnits="userSpaceOnUse" gradientTransform="translate(11.7117 57.0538) rotate(-168) scale(8.91178)">
<stop offset="0.1296" stop-color="#3280FC"/>
<stop offset="1"/>
</radialGradient>
<linearGradient id="paint7_linear_1_7673" x1="17.0291" y1="58.2223" x2="6.4089" y2="55.9649" gradientUnits="userSpaceOnUse">
<stop stop-color="#030D14"/>
<stop offset="1" stop-color="#0B2F45"/>
</linearGradient>
<linearGradient id="paint8_linear_1_7673" x1="60.7947" y1="124.53" x2="49.1625" y2="84.2747" gradientUnits="userSpaceOnUse">
<stop stop-color="#1B36FF"/>
<stop offset="0.164" stop-color="#1750FD"/>
<stop offset="0.518" stop-color="#0D95F8"/>
<stop offset="1" stop-color="#00FCF1"/>
</linearGradient>
<linearGradient id="paint9_linear_1_7673" x1="22.2484" y1="135.039" x2="0.201013" y2="88.4901" gradientUnits="userSpaceOnUse">
<stop stop-color="#1B36FF"/>
<stop offset="0.148441" stop-color="#1750FD"/>
<stop offset="0.5491" stop-color="#0CA1F7"/>
<stop offset="1" stop-color="#00FCF1"/>
</linearGradient>
<linearGradient id="paint10_linear_1_7673" x1="37.1198" y1="95.1097" x2="32.3665" y2="65.6332" gradientUnits="userSpaceOnUse">
<stop stop-color="#1B36FF"/>
<stop offset="0.516846" stop-color="#1750FD"/>
<stop offset="0.689774" stop-color="#0D95F8"/>
<stop offset="1" stop-color="#00FCF1"/>
</linearGradient>
<linearGradient id="paint11_linear_1_7673" x1="63.4387" y1="17.3551" x2="70.3362" y2="24.2525" gradientUnits="userSpaceOnUse">
<stop offset="0.000844595" stop-color="#0173EC"/>
<stop offset="0.555" stop-color="#0D95F8"/>
<stop offset="1" stop-color="#406DF6"/>
</linearGradient>
<linearGradient id="paint12_linear_1_7673" x1="58.1563" y1="23.1271" x2="62.4991" y2="27.4699" gradientUnits="userSpaceOnUse">
<stop offset="0.000844595" stop-color="#0173EC"/>
<stop offset="0.555" stop-color="#0D95F8"/>
<stop offset="1" stop-color="#406DF6"/>
</linearGradient>
<linearGradient id="paint13_linear_1_7673" x1="54.6816" y1="28.1305" x2="58.0026" y2="31.4515" gradientUnits="userSpaceOnUse">
<stop offset="0.000844595" stop-color="#0173EC"/>
<stop offset="0.555" stop-color="#0D95F8"/>
<stop offset="1" stop-color="#406DF6"/>
</linearGradient>
</defs>
</svg>
